<svg width="65" height="40" viewBox="0 0 65 40" fill="none" xmlns="http://www.w3.org/2000/svg">
<rect width="65" height="40" rx="8" fill="#FFD800"/>
<mask id="mask0_12_324" style="mask-type:luminance" maskUnits="userSpaceOnUse" x="16" y="3" width="33" height="33">
<path d="M48.3887 3.8125H16.3887V35.8125H48.3887V3.8125Z" fill="white"/>
</mask>
<g mask="url(#mask0_12_324)">
<path d="M48.3887 3.8125H16.3887V35.8125H48.3887V3.8125Z" fill="#FFD800"/>
<path d="M20.0353 21.7191C22.091 23.9295 24.0433 26.3021 27.0819 27.1046C28.8055 27.5599 29.6232 27.1531 31.2499 26.9202C32.9904 26.671 34.69 26.5828 36.437 26.4457C39.2701 26.2233 41.554 25.363 43.8157 23.6686C44.0305 23.5081 44.5354 23.1415 44.6918 22.9687C45.0251 22.5987 44.6918 22.1084 44.215 22.2578C43.2081 23.0499 42.1634 23.7882 41.0205 24.3754C39.6577 25.0752 38.2026 25.4301 36.6704 25.5702C34.7542 25.7453 32.869 25.8176 30.9592 26.1042C29.9022 26.263 29.1644 26.5799 28.0397 26.4392C24.9305 26.0499 22.7009 23.2693 20.6773 21.136C20.4024 20.8459 19.3506 19.5152 19.0897 19.455C18.9887 19.4317 18.8633 19.4253 18.764 19.455C18.4652 19.5443 18.4681 19.8957 18.6059 20.1146C18.8557 20.5121 19.6728 21.3298 20.0353 21.7191Z" fill="black"/>
<path d="M43.4578 11.9293C47.2523 11.4495 47.5926 16.5834 44.2575 16.8729C40.7362 17.1788 40.3889 12.3174 43.4578 11.9293Z" fill="black"/>
<path d="M18.3146 14.3164C18.9176 16.6552 22.2404 16.9389 23.2175 14.725C23.6371 13.7736 23.5478 12.8479 22.8106 12.0675C21.0328 10.1852 17.6493 11.7343 18.3146 14.3164Z" fill="black"/>
<path d="M43.4159 13.2413C44.6784 12.9851 45.0397 14.9824 43.6365 14.9824C42.4464 14.9824 42.4067 13.4468 43.4159 13.2413Z" fill="#FBFBFB"/>
<path d="M20.2798 12.0354C21.5201 11.8323 21.7366 13.5751 20.6609 13.7578C19.3769 13.9761 19.109 12.2269 20.2798 12.0354Z" fill="#FBFBFB"/>
</g>
</svg>
