<svg width="1440" height="784" viewBox="0 0 1440 784" fill="none" xmlns="http://www.w3.org/2000/svg">
<g clip-path="url(#clip0_87_589)">
<g filter="url(#filter0_f_87_589)">
<path d="M-103.788 233.893L1605.79 233.893C1629.1 233.893 1648 271.309 1648 317.464V526.391C1648 572.546 1629.1 609.962 1605.79 609.962L-103.788 609.962C-127.101 609.962 -146 572.546 -146 526.391L-146 317.464C-146 271.309 -127.101 233.893 -103.788 233.893Z" fill="#A97DF5"/>
<path d="M-103.788 233.893L1163.89 233.893C1187.2 233.893 1206.1 271.309 1206.1 317.464V526.391C1206.1 572.546 1187.2 609.962 1163.89 609.962L-103.788 609.962C-127.101 609.962 -146 572.546 -146 526.391L-146 317.464C-146 271.309 -127.101 233.893 -103.788 233.893Z" fill="#49C17A"/>
<path d="M171.912 233.893L1163.89 233.893C1187.2 233.893 1206.1 271.309 1206.1 317.464V526.391C1206.1 572.546 1187.2 609.962 1163.89 609.962L171.912 609.962C148.599 609.962 129.7 572.546 129.7 526.391L129.7 317.464C129.7 271.309 148.599 233.893 171.912 233.893Z" fill="#FFBF66"/>
<path d="M538.627 233.893L1163.89 233.893C1187.2 233.893 1206.1 271.309 1206.1 317.464V526.391C1206.1 572.546 1187.2 609.962 1163.89 609.962L538.627 609.962C515.314 609.962 496.415 572.546 496.415 526.391L496.415 317.464C496.415 271.309 515.314 233.893 538.627 233.893Z" fill="#F3655B"/>
</g>
</g>
<g clip-path="url(#clip1_87_589)">
<g filter="url(#filter1_f_87_589)">
<path d="M-103.788 550.107H1605.79C1629.1 550.107 1648 512.691 1648 466.536V257.609C1648 211.454 1629.1 174.038 1605.79 174.038H-103.788C-127.101 174.038 -146 211.454 -146 257.609V466.536C-146 512.691 -127.101 550.107 -103.788 550.107Z" fill="#A97DF5"/>
<path d="M-103.788 550.107H1163.89C1187.2 550.107 1206.1 512.691 1206.1 466.536V257.609C1206.1 211.454 1187.2 174.038 1163.89 174.038H-103.788C-127.101 174.038 -146 211.454 -146 257.609V466.536C-146 512.691 -127.101 550.107 -103.788 550.107Z" fill="#49C17A"/>
<path d="M171.912 550.107H1163.89C1187.2 550.107 1206.1 512.691 1206.1 466.536V257.609C1206.1 211.454 1187.2 174.038 1163.89 174.038H171.912C148.599 174.038 129.7 211.454 129.7 257.609V466.536C129.7 512.691 148.599 550.107 171.912 550.107Z" fill="#FFBF66"/>
<path d="M538.627 550.107H1163.89C1187.2 550.107 1206.1 512.691 1206.1 466.536V257.609C1206.1 211.454 1187.2 174.038 1163.89 174.038H538.627C515.314 174.038 496.415 211.454 496.415 257.609V466.536C496.415 512.691 515.314 550.107 538.627 550.107Z" fill="#F3655B"/>
</g>
</g>
<defs>
<filter id="filter0_f_87_589" x="-283.188" y="96.7051" width="2068.38" height="650.445" filterUnits="userSpaceOnUse" color-interpolation-filters="sRGB">
<feFlood flood-opacity="0" result="BackgroundImageFix"/>
<feBlend mode="normal" in="SourceGraphic" in2="BackgroundImageFix" result="shape"/>
<feGaussianBlur stdDeviation="68.5941" result="effect1_foregroundBlur_87_589"/>
</filter>
<filter id="filter1_f_87_589" x="-283.188" y="36.8499" width="2068.38" height="650.445" filterUnits="userSpaceOnUse" color-interpolation-filters="sRGB">
<feFlood flood-opacity="0" result="BackgroundImageFix"/>
<feBlend mode="normal" in="SourceGraphic" in2="BackgroundImageFix" result="shape"/>
<feGaussianBlur stdDeviation="68.5941" result="effect1_foregroundBlur_87_589"/>
</filter>
<clipPath id="clip0_87_589">
<rect width="1440" height="392" fill="white" transform="matrix(1 0 0 -1 0 392)"/>
</clipPath>
<clipPath id="clip1_87_589">
<rect width="1440" height="392" fill="white" transform="translate(0 392)"/>
</clipPath>
</defs>
</svg>
