<svg width="1440" height="198" viewBox="0 0 1440 198" fill="none" xmlns="http://www.w3.org/2000/svg">
<g filter="url(#filter0_f_33_228)">
<path d="M-134.788 60L1574.79 60C1598.1 60 1617 41.1011 1617 17.7882V-87.7412C1617 -111.054 1598.1 -129.953 1574.79 -129.953L-134.788 -129.953C-158.101 -129.953 -177 -111.054 -177 -87.7412V17.7882C-177 41.1011 -158.101 60 -134.788 60Z" fill="#A97DF5"/>
<path d="M-134.788 60L1132.89 60C1156.2 60 1175.1 41.1011 1175.1 17.7882V-87.7412C1175.1 -111.054 1156.2 -129.953 1132.89 -129.953L-134.788 -129.953C-158.101 -129.953 -177 -111.054 -177 -87.7412V17.7882C-177 41.1011 -158.101 60 -134.788 60Z" fill="#49C17A"/>
<path d="M140.912 60L1132.89 60C1156.2 60 1175.1 41.1011 1175.1 17.7882V-87.7412C1175.1 -111.054 1156.2 -129.953 1132.89 -129.953L140.912 -129.953C117.599 -129.953 98.7 -111.054 98.7 -87.7412V17.7882C98.7 41.1011 117.599 60 140.912 60Z" fill="#FFBF66"/>
<path d="M507.627 60L1132.89 60C1156.2 60 1175.1 41.1011 1175.1 17.7882V-87.7412C1175.1 -111.054 1156.2 -129.953 1132.89 -129.953L507.627 -129.953C484.314 -129.953 465.415 -111.054 465.415 -87.7412V17.7882C465.415 41.1011 484.314 60 507.627 60Z" fill="#F3655B"/>
</g>
<defs>
<filter id="filter0_f_33_228" x="-314.188" y="-267.141" width="2068.38" height="464.329" filterUnits="userSpaceOnUse" color-interpolation-filters="sRGB">
<feFlood flood-opacity="0" result="BackgroundImageFix"/>
<feBlend mode="normal" in="SourceGraphic" in2="BackgroundImageFix" result="shape"/>
<feGaussianBlur stdDeviation="68.5941" result="effect1_foregroundBlur_33_228"/>
</filter>
</defs>
</svg>
