<svg width="1440" height="169" viewBox="0 0 1440 169" fill="none" xmlns="http://www.w3.org/2000/svg">
<g clip-path="url(#clip0_17_325)">
<g filter="url(#filter0_f_17_325)">
<path d="M-134.788 327.953L1574.79 327.953C1598.1 327.953 1617 309.054 1617 285.741V180.212C1617 156.899 1598.1 138 1574.79 138L-134.788 138C-158.101 138 -177 156.899 -177 180.212V285.741C-177 309.054 -158.101 327.953 -134.788 327.953Z" fill="#A97DF5"/>
<path d="M-134.788 327.953L1132.89 327.953C1156.2 327.953 1175.1 309.054 1175.1 285.741V180.212C1175.1 156.899 1156.2 138 1132.89 138L-134.788 138C-158.101 138 -177 156.899 -177 180.212V285.741C-177 309.054 -158.101 327.953 -134.788 327.953Z" fill="#49C17A"/>
<path d="M140.912 327.953L1132.89 327.953C1156.2 327.953 1175.1 309.054 1175.1 285.741V180.212C1175.1 156.899 1156.2 138 1132.89 138L140.912 138C117.599 138 98.7 156.899 98.7 180.212V285.741C98.7 309.054 117.599 327.953 140.912 327.953Z" fill="#FFBF66"/>
<path d="M507.627 327.953L1132.89 327.953C1156.2 327.953 1175.1 309.054 1175.1 285.741V180.212C1175.1 156.899 1156.2 138 1132.89 138L507.627 138C484.314 138 465.415 156.899 465.415 180.212V285.741C465.415 309.054 484.314 327.953 507.627 327.953Z" fill="#F3655B"/>
</g>
</g>
<defs>
<filter id="filter0_f_17_325" x="-314.188" y="0.811798" width="2068.38" height="464.329" filterUnits="userSpaceOnUse" color-interpolation-filters="sRGB">
<feFlood flood-opacity="0" result="BackgroundImageFix"/>
<feBlend mode="normal" in="SourceGraphic" in2="BackgroundImageFix" result="shape"/>
<feGaussianBlur stdDeviation="68.5941" result="effect1_foregroundBlur_17_325"/>
</filter>
<clipPath id="clip0_17_325">
<rect width="1440" height="169" fill="white"/>
</clipPath>
</defs>
</svg>
