<svg width="128" height="32" viewBox="0 0 128 32" fill="none" xmlns="http://www.w3.org/2000/svg">
<g clip-path="url(#clip0_4_26)">
<mask id="mask0_4_26" style="mask-type:luminance" maskUnits="userSpaceOnUse" x="0" y="0" width="32" height="32">
<path d="M32 0H0V32H32V0Z" fill="white"/>
</mask>
<g mask="url(#mask0_4_26)">
<path d="M32 0H0V32H32V0Z" fill="#FFD800"/>
<path d="M3.6466 17.9066C5.70229 20.117 7.65466 22.4896 10.6932 23.2921C12.4168 23.7474 13.2345 23.3406 14.8612 23.1077C16.6017 22.8584 18.3014 22.7703 20.0483 22.6332C22.8814 22.4108 25.1653 21.5504 27.4271 19.8561C27.6418 19.6955 28.1467 19.329 28.3031 19.1562C28.6364 18.7862 28.3031 18.2959 27.8263 18.4453C26.8195 19.2374 25.7747 19.9757 24.6319 20.5629C23.269 21.2627 21.8139 21.6176 20.2818 21.7576C18.3656 21.9327 16.4803 22.0051 14.5706 22.2917C13.5135 22.4505 12.7758 22.7674 11.651 22.6267C8.54184 22.2374 6.31222 19.4568 4.28864 17.3235C4.01373 17.0334 2.96196 15.7027 2.70106 15.6425C2.60008 15.6192 2.47459 15.6128 2.37537 15.6425C2.07653 15.7318 2.07945 16.0832 2.21719 16.3021C2.467 16.6996 3.28414 17.5173 3.6466 17.9066Z" fill="black"/>
<path d="M27.0693 8.11674C30.8637 7.63697 31.204 12.7709 27.8689 13.0604C24.3476 13.3663 24.0003 8.50488 27.0693 8.11674Z" fill="black"/>
<path d="M1.92594 10.5039C2.52888 12.8427 5.85171 13.1263 6.82877 10.9125C7.24843 9.9611 7.15913 9.0354 6.42195 8.25503C4.64409 6.3727 1.26056 7.92175 1.92594 10.5039Z" fill="black"/>
<path d="M27.0272 9.42881C28.2897 9.17258 28.651 11.1699 27.2479 11.1699C26.0578 11.1699 26.0181 9.63426 27.0272 9.42881Z" fill="#FBFBFB"/>
<path d="M3.89116 8.22294C5.13145 8.01983 5.348 9.76266 4.27229 9.94535C2.98822 10.1636 2.72031 8.41439 3.89116 8.22294Z" fill="#FBFBFB"/>
</g>
<mask id="mask1_4_26" style="mask-type:alpha" maskUnits="userSpaceOnUse" x="48" y="0" width="80" height="32">
<path d="M56.9863 0.842595C57.1464 0.423256 57.3468 0.323271 57.5869 0.542791C57.747 0.642654 57.8877 0.862782 57.9678 1.1424C58.0678 1.44173 58.1275 1.64177 58.1475 1.76154C58.228 2.10193 59.0087 3.83936 60.4492 6.95392C61.0296 8.1323 61.6501 9.69033 62.3105 11.5877C62.5908 12.4266 63.3914 14.2246 64.6924 17.0008C65.3527 18.3585 65.793 19.2969 65.9932 19.8162C66.4535 20.8348 67.6944 23.2918 69.7158 27.1863L70.2363 28.2645L70.2568 28.285C70.9173 29.7629 71.4381 30.7019 71.7783 31.1014C71.9181 31.3804 71.9978 31.5799 71.998 31.66C71.998 31.8796 71.7379 31.9998 71.2178 31.9998H68.0947C67.9947 31.9996 67.8748 31.8995 67.7549 31.7C67.6348 31.4804 67.5351 31.2806 67.4551 31.0809C67.375 30.8812 67.2944 30.7012 67.2344 30.5613C67.0942 30.2616 66.8137 29.6024 66.4336 28.5643C66.0534 27.5258 65.7529 26.6868 65.5527 26.0877C65.4726 25.8081 65.2933 25.3684 65.0332 24.8094C64.773 24.2302 64.5927 23.8508 64.4727 23.6112C64.3526 23.2517 64.2524 23.0318 64.1523 22.9119C64.0523 22.7921 63.8915 22.7322 63.6914 22.7322C63.4914 22.7323 63.2315 22.7523 62.9316 22.7723C62.6314 22.7923 62.2905 22.8324 61.9502 22.8524C61.7297 22.9122 61.0094 22.9324 59.7891 22.9324C58.9484 22.9324 58.1072 22.9526 57.3066 23.0125C57.0464 23.0524 56.5859 23.0516 55.9258 23.0516L53.624 23.0125C53.484 23.0126 53.3837 23.0724 53.3037 23.1922C53.2238 23.3119 53.1636 23.4516 53.1436 23.6112C53.1235 23.7709 53.0635 23.991 53.0635 23.991L52.8037 25.0692C52.7237 25.4686 52.6035 25.9283 52.4834 26.4676C52.3633 27.0068 52.2431 27.5063 52.1631 27.9656L51.6826 29.8231L51.3428 31.0809C51.2627 31.4404 51.1826 31.6607 51.1025 31.7606C51.0425 31.8802 50.9222 31.9197 50.7822 31.9197H48.2197C48.0799 31.9196 48 31.8598 48 31.7401C48.0001 31.6998 48.0598 31.4803 48.1797 31.1414C48.3999 30.6022 48.6001 30.062 48.7803 29.5028C49.8409 25.9281 50.4814 23.5915 50.6816 22.493C50.9418 21.035 51.4826 19.1771 52.2832 16.9002C52.5433 15.9218 52.7833 15.0431 53.0234 14.2244C53.1035 13.805 53.2242 13.3251 53.4043 12.7459C53.9447 10.7289 54.5046 8.83149 55.0449 7.07404L56.126 3.61896C56.3461 2.72029 56.6461 1.80117 56.9863 0.842595ZM74.9404 1.8006C75.0605 1.80063 75.2008 1.82123 75.3408 1.86115C75.4807 1.90102 75.6007 1.92071 75.7207 1.92072C75.9409 1.92072 76.2213 1.90065 76.5615 1.88068C76.9017 1.84076 77.2419 1.84064 77.582 1.84064L79.2832 1.88068C80.9044 1.88068 82.366 1.9606 83.667 2.10041C83.7675 2.10044 84.1677 2.12062 84.8076 2.18049C85.4681 2.2404 86.3085 2.54028 87.3291 3.09943C88.3699 3.65867 89.4514 4.43771 90.6123 5.43635L90.5723 5.47638C92.2733 6.97428 93.3937 8.77188 93.9541 10.8289C94.4945 12.8861 94.7754 15.1629 94.7754 17.6395C94.7754 18.9377 94.5751 20.3957 94.1348 22.0135C93.6944 23.6313 93.0936 25.1295 92.333 26.5076C91.5725 27.9055 90.6916 28.9238 89.6709 29.5828C88.29 30.4815 86.5691 31.1012 84.5078 31.4608C82.4463 31.8203 80.8244 31.9998 79.6436 31.9998H75.2207C74.9005 31.9998 74.7002 31.9199 74.6201 31.7801C74.5401 31.6403 74.5401 31.4804 74.6201 31.3006C74.66 31.2207 74.6602 31.1005 74.6602 30.9608C74.6601 30.841 74.6396 30.6813 74.6396 30.5018C74.6196 30.322 74.6201 30.0424 74.6201 29.7029C74.6201 28.7443 74.6001 27.8053 74.5801 26.8865L74.5 19.0574L74.54 10.3494C74.54 9.59047 74.52 8.85121 74.5 8.15217C74.48 7.45337 74.4399 6.83441 74.4199 6.31525L74.3398 3.57892C74.3798 2.92027 74.4195 2.46073 74.4795 2.20099C74.5395 1.94135 74.6402 1.8006 74.8203 1.8006H74.9404ZM99.7793 1.06232C99.9192 1.06237 100.039 1.08241 100.119 1.10236C100.479 1.12233 100.86 1.12189 101.22 1.12189C101.58 1.10193 101.9 1.10236 102.16 1.10236C102.781 1.10236 103.262 1.12243 103.542 1.1424H103.582C103.942 1.18235 104.182 1.24233 104.322 1.36213C104.462 1.48186 104.542 1.6412 104.542 1.84064C104.542 1.9804 104.522 2.14045 104.502 2.32013C104.482 2.49988 104.442 2.65982 104.422 2.79963C104.102 5.23617 103.922 7.77265 103.902 10.369C103.862 11.108 103.862 12.2671 103.862 13.825L103.902 19.0574C103.942 19.4768 103.942 19.9361 103.942 20.3953L103.982 22.1336C104.042 23.6313 104.062 24.7496 104.062 25.4686C104.062 26.0278 104.042 26.3478 104.022 26.4676C103.982 26.5875 103.982 26.9067 103.982 27.4656L104.022 29.8426C104.062 30.1821 104.062 30.6221 104.062 31.1414C104.102 31.5205 103.982 31.7603 103.742 31.8602C103.502 31.96 103.161 31.9798 102.761 31.9598H98.8184C98.398 31.9997 98.1172 31.9002 97.9971 31.6805C97.877 31.4608 97.7974 31.1211 97.7773 30.6219C97.7173 30.4222 97.7374 29.8829 97.8574 29.0242C97.9775 28.2255 98.0371 27.5262 98.0371 26.9471C98.0371 26.7474 98.1377 24.7895 98.3379 21.0945C98.518 18.3784 98.5977 16.9001 98.5977 16.6404L98.6777 12.3865L98.7578 8.45197L98.8379 6.11506L98.918 4.55744V2.74006C98.918 1.62158 99.1989 1.06232 99.7793 1.06232ZM126.759 0.00372809C127.159 -0.0162446 127.44 0.0431651 127.62 0.202947C127.8 0.362679 127.88 0.622556 127.88 1.00177C127.88 1.1216 127.86 1.44152 127.8 1.96076C127.74 2.38019 127.72 5.25641 127.72 10.5692V20.3553C127.72 21.8333 127.74 23.4517 127.78 25.2293C127.84 27.0067 127.88 28.6043 127.94 30.0223V30.0028C127.96 30.6415 128 31.0408 128 31.2606C127.98 31.6599 127.76 31.8796 127.34 31.8797C127.14 31.8797 126.959 31.8596 126.819 31.8397C126.699 31.7997 126.458 31.7996 126.118 31.7996C125.778 31.7996 125.238 31.8198 124.478 31.8797C123.677 31.9396 123.116 31.9598 122.796 31.9598C122.236 31.9598 121.835 31.8396 121.555 31.6199C121.295 31.3802 120.995 30.9609 120.715 30.3621L119.974 28.8836C119.113 26.9465 118.332 25.4283 117.672 24.3299C117.291 23.6904 116.351 21.9528 114.811 19.0975L112.908 15.5028V18.1385C112.908 18.3582 112.889 18.6583 112.889 18.9979C112.869 19.3572 112.868 19.7365 112.908 20.1756C112.908 21.6736 112.929 23.6515 112.969 26.0682C113.009 28.4847 113.089 29.9429 113.169 30.4422C113.209 30.5819 113.209 30.7613 113.209 30.9608C113.209 31.2404 113.148 31.4209 113.028 31.5008C112.928 31.5605 112.708 31.5803 112.389 31.5604C111.928 31.5604 111.387 31.5805 110.767 31.6404C110.146 31.7003 109.546 31.7602 109.006 31.8201C108.586 31.8801 108.305 31.8001 108.165 31.6004C108.025 31.4007 107.985 30.9614 108.005 30.2625C108.005 29.2239 107.945 27.4058 107.865 24.7694C107.745 22.0135 107.665 19.637 107.645 17.6199C107.645 15.5827 107.705 13.4847 107.785 11.3875C107.845 8.7314 107.865 6.91397 107.865 5.93537C107.865 4.61753 107.805 3.63907 107.725 3.03986C107.665 2.52068 107.645 2.1807 107.645 2.04084C107.645 1.52155 107.725 1.162 107.905 0.982244C108.085 0.802583 108.325 0.702947 108.605 0.702947C108.746 0.702949 109.026 0.72247 109.466 0.722478C109.906 0.742448 110.527 0.642845 111.327 0.443181C111.647 0.383271 111.968 0.363108 112.288 0.363103C112.468 0.363103 112.708 0.363249 113.028 0.403142C113.349 0.443088 113.77 0.443181 114.29 0.443181C114.95 0.443266 115.511 0.702366 115.951 1.2215C116.412 1.74078 116.892 2.4601 117.412 3.41877L117.853 4.19806C118.193 4.83711 118.613 5.51626 119.113 6.23517L119.754 7.23322V4.85724C119.754 3.0597 119.774 1.96071 119.794 1.52131C119.794 0.962162 119.974 0.643085 120.354 0.523259C120.715 0.403461 121.275 0.342616 121.995 0.342595C122.616 0.342595 123.437 0.322877 124.438 0.242986C125.438 0.163114 126.198 0.0835996 126.759 0.00372809ZM81.7656 8.11213C81.6656 9.53019 81.625 11.488 81.625 13.9647C81.625 14.2049 81.6856 15.483 81.7656 17.8192C81.8657 18.7978 81.9053 19.7367 81.9053 20.5955L81.8652 26.1873C81.8252 27.0461 81.8252 28.4444 81.8252 30.3416C83.8266 30.4614 85.6479 30.1022 87.2891 29.2635C88.8702 28.4446 90.1917 27.1067 91.2324 25.2293C92.2732 23.3519 92.7939 20.7551 92.7939 17.5994C92.7939 14.4438 92.2727 11.8869 91.252 9.96955C90.2312 8.05241 88.9302 6.61468 87.3691 5.65607C85.768 4.69745 83.9668 4.19753 81.9453 4.17756L81.7656 8.11213ZM57.5674 7.71271C57.4873 7.71271 57.3872 7.93264 57.2871 8.37189C57.187 8.81129 57.1069 9.15122 57.0469 9.37092C56.5265 11.0485 56.166 12.3266 55.9258 13.1854C55.8057 13.6048 55.6459 14.1443 55.4258 14.7635C55.2056 15.3826 55.0449 15.8021 54.9648 16.0418C54.8848 16.3413 54.8447 16.5613 54.8447 16.741C54.8449 16.9205 54.9656 17.0008 55.2256 17.0008C55.846 17.0008 56.7666 16.9802 58.0273 16.9403C59.2883 16.8803 60.0694 16.841 60.3896 16.7811C60.5897 16.7412 60.7701 16.741 60.9102 16.741C61.0502 16.7409 61.25 16.701 61.25 16.701H61.2695C61.3694 16.6611 61.41 16.621 61.4102 16.5613C61.4102 16.5014 61.3496 16.4013 61.2695 16.2215C61.1294 15.9418 60.7899 15.2025 60.2695 14.0242C59.7491 12.8458 59.3886 11.9271 59.1885 11.3279C58.8883 10.629 58.6679 10.05 58.5078 9.59064C58.3477 9.13127 58.2275 8.81141 58.1475 8.63166C58.0874 8.47193 58.0273 8.33198 57.9473 8.1922C57.8673 8.05248 57.8071 7.93222 57.7471 7.85236C57.6872 7.75293 57.6273 7.7128 57.5674 7.71271Z" fill="white"/>
</mask>
<g mask="url(#mask1_4_26)">
<path d="M12.4787 -476.273L26.7561 -472.122L161.262 73.5394L77.8963 49.3066L12.4787 -476.273Z" fill="#FF7A45"/>
<path d="M12.4787 -476.272L41.3466 38.6826L67.6163 46.3186L12.4787 -476.272Z" fill="#49C17A"/>
<path d="M18.7377 -358.232L33.2067 -354.026L171.083 192.616L86.5989 168.058L18.7377 -358.232Z" fill="#FFBF66"/>
<path d="M29.4788 -296.273L116.023 235.448L72.0512 222.666L29.4788 -296.273Z" fill="#5CCEE5"/>
</g>
</g>
<defs>
<clipPath id="clip0_4_26">
<rect width="128" height="32" fill="white"/>
</clipPath>
</defs>
</svg>
