<svg width="32" height="32" viewBox="0 0 32 32" fill="none" xmlns="http://www.w3.org/2000/svg">
<mask id="mask0_33_214" style="mask-type:luminance" maskUnits="userSpaceOnUse" x="0" y="0" width="32" height="32">
<path d="M32 0H0V32H32V0Z" fill="white"/>
</mask>
<g mask="url(#mask0_33_214)">
<path d="M32 0H0V32H32V0Z" fill="#FFD800"/>
<path d="M3.65002 17.91C5.70002 20.12 7.64993 22.4899 10.6899 23.2899C12.4199 23.7499 13.23 23.3398 14.86 23.1098C16.6 22.8598 18.3 22.7698 20.05 22.6298C22.88 22.4098 25.17 21.5498 27.43 19.8598C27.64 19.6998 28.15 19.33 28.3 19.16C28.64 18.79 28.2999 18.3001 27.8299 18.4501C26.8199 19.2401 25.77 19.9799 24.63 20.5599C23.27 21.2599 21.81 21.6197 20.28 21.7597C18.37 21.9297 16.4799 22.0099 14.5699 22.2899C13.5099 22.4499 12.78 22.7698 11.65 22.6298C8.54002 22.2398 6.31003 19.4597 4.29003 17.3197C4.01003 17.0297 2.95994 15.7 2.69994 15.64C2.59994 15.62 2.47 15.61 2.38 15.64C2.08 15.73 2.07996 16.0797 2.21996 16.2997C2.46996 16.6997 3.28002 17.52 3.65002 17.91Z" fill="black"/>
<path d="M27.07 8.12005C30.86 7.64005 31.2001 12.77 27.8701 13.06C24.3501 13.37 24 8.50005 27.07 8.12005Z" fill="black"/>
<path d="M1.93002 10.4998C2.53002 12.8398 5.84993 13.13 6.82993 10.91C7.24993 9.95999 7.16002 9.0396 6.42002 8.2596C4.64002 6.3696 1.26002 7.91984 1.93002 10.4998Z" fill="black"/>
<path d="M27.03 9.43006C28.29 9.17006 28.65 11.1698 27.25 11.1698C26.06 11.1698 26.02 9.63006 27.03 9.43006Z" fill="#FBFBFB"/>
<path d="M3.89006 8.22008C5.13006 8.02008 5.35006 9.76006 4.27006 9.95006C2.99006 10.1601 2.72006 8.41008 3.89006 8.22008Z" fill="#FBFBFB"/>
</g>
</svg>
