<svg width="32" height="32" viewBox="0 0 32 32" fill="none" xmlns="http://www.w3.org/2000/svg">
<g clip-path="url(#clip0_21_2)">
<path d="M24 0H8C3.58172 0 0 3.58172 0 8V24C0 28.4183 3.58172 32 8 32H24C28.4183 32 32 28.4183 32 24V8C32 3.58172 28.4183 0 24 0Z" fill="black"/>
<mask id="mask0_21_2" style="mask-type:luminance" maskUnits="userSpaceOnUse" x="4" y="10" width="24" height="12">
<path d="M28 10H4V22H28V10Z" fill="white"/>
</mask>
<g mask="url(#mask0_21_2)">
<path fill-rule="evenodd" clip-rule="evenodd" d="M16 19.1927L18.8177 22.0006H28L22.3644 16.3848C21.3831 15.4069 19.799 15.4069 18.8177 16.3848L16 19.1927L13.1822 16.3848C12.2009 15.4069 10.6168 15.4069 9.6355 16.3848L4 22.0006H13.1822L16 19.1927Z" fill="#03FFD1"/>
<path d="M15.9989 16.6775C15.9989 14.8335 17.4989 13.3388 19.3494 13.3388C17.4989 13.3388 15.9989 11.844 15.9989 10C15.9989 11.844 14.4989 13.3388 12.6484 13.3388C14.4989 13.3388 15.9989 14.8335 15.9989 16.6775Z" fill="white"/>
</g>
</g>
<defs>
<clipPath id="clip0_21_2">
<rect width="32" height="32" fill="white"/>
</clipPath>
</defs>
</svg>
