<svg width="32" height="32" viewBox="0 0 32 32" fill="none" xmlns="http://www.w3.org/2000/svg">
<g clip-path="url(#clip0_21_19)">
<path d="M24 0H8C3.58172 0 0 3.58172 0 8V24C0 28.4183 3.58172 32 8 32H24C28.4183 32 32 28.4183 32 24V8C32 3.58172 28.4183 0 24 0Z" fill="white"/>
<path d="M24.6861 14.3005C25.1448 12.9187 24.986 11.4061 24.2506 10.1501C23.1445 8.2243 20.9216 7.23358 18.7509 7.69901C16.8588 5.59368 13.6194 5.42138 11.5146 7.31401C10.8467 7.91477 10.3483 8.68021 10.0698 9.53446C8.64362 9.82722 7.41292 10.7204 6.69241 11.9855C5.57449 13.9083 5.82826 16.3338 7.31996 17.9836C6.85968 19.3647 7.01705 20.8776 7.75165 22.1341C8.8589 24.0606 11.0833 25.0513 13.2551 24.5851C14.2214 25.6734 15.6091 26.2929 17.0642 26.2845C19.2893 26.2864 21.2607 24.8493 21.9401 22.7299C23.3658 22.4367 24.5965 21.5436 25.3174 20.2788C26.422 18.3595 26.1671 15.9465 24.6861 14.3005ZM17.0642 24.9572C16.176 24.9587 15.3157 24.6473 14.634 24.0774L14.754 24.0095L18.7909 21.6782C18.9952 21.5581 19.1213 21.3393 19.1228 21.1022V15.4079L20.8294 16.3956C20.8465 16.4043 20.8584 16.4207 20.8614 16.4394V21.1578C20.8568 23.254 19.1594 24.9526 17.0642 24.9572ZM8.90271 21.4704C8.4573 20.7011 8.29727 19.7992 8.4512 18.9233L8.57122 18.9953L12.6119 21.3263C12.8154 21.446 13.068 21.446 13.2715 21.3263L18.2076 18.4796V20.4511C18.2065 20.4717 18.1962 20.4907 18.1798 20.5029L14.0911 22.8621C12.274 23.9093 9.95242 23.2868 8.90271 21.4704ZM7.83967 12.6732C8.28813 11.8986 8.99606 11.3082 9.83811 11.0059V15.8043C9.83506 16.0403 9.96042 16.2595 10.1658 16.3761L15.0779 19.2111L13.3713 20.1987C13.3526 20.2086 13.3302 20.2086 13.3115 20.1987L9.23077 17.8433C7.41749 16.792 6.79568 14.4713 7.83967 12.653V12.6732ZM21.8604 15.932L16.9323 13.0689L18.6347 12.0854C18.6534 12.0755 18.6759 12.0755 18.6945 12.0854L22.7753 14.4446C24.5916 15.4933 25.2142 17.8167 24.166 19.6334C23.7248 20.3985 23.0309 20.9855 22.2037 21.2943V16.4958C22.1965 16.2602 22.0661 16.046 21.8604 15.932ZM23.559 13.3769L23.439 13.3049L19.4063 10.9536C19.2013 10.8336 18.9475 10.8336 18.7429 10.9536L13.811 13.8004V11.8289C13.8091 11.8087 13.8183 11.7885 13.835 11.777L17.9157 9.42163C19.7347 8.37335 22.059 8.9985 23.1068 10.8183C23.5495 11.5868 23.7095 12.486 23.5594 13.3601L23.559 13.3769ZM12.8798 16.8717L11.1732 15.8882C11.1561 15.8779 11.1443 15.86 11.1412 15.8402V11.1336C11.1439 9.03319 12.8482 7.33307 14.9472 7.33574C15.8331 7.33688 16.6911 7.64755 17.3724 8.21439L17.2524 8.28224L13.2155 10.6136C13.0113 10.7337 12.8851 10.9525 12.8836 11.1896L12.8798 16.8717ZM13.8068 14.8723L16.0049 13.6049L18.2072 14.8723V17.4073L16.0129 18.6751L13.811 17.4073L13.8068 14.8723Z" fill="black"/>
</g>
<defs>
<clipPath id="clip0_21_19">
<rect width="32" height="32" fill="white"/>
</clipPath>
</defs>
</svg>
