<svg width="25" height="25" viewBox="0 0 25 25" fill="none" xmlns="http://www.w3.org/2000/svg">
<path d="M6.62306 21.4375C6.33526 21.437 6.05255 21.3615 5.80275 21.2186C5.24025 20.8999 4.89056 20.2811 4.89056 19.6094V6.01565C4.89056 5.34205 5.24025 4.72518 5.80275 4.40643C6.0585 4.25944 6.34904 4.18386 6.644 4.18757C6.93895 4.19128 7.2275 4.27415 7.47947 4.42752L19.0974 11.3819C19.3396 11.5337 19.5392 11.7446 19.6775 11.9946C19.8159 12.2447 19.8885 12.5258 19.8885 12.8116C19.8885 13.0974 19.8159 13.3785 19.6775 13.6286C19.5392 13.8786 19.3396 14.0894 19.0974 14.2413L7.47759 21.1975C7.21973 21.3534 6.92438 21.4364 6.62306 21.4375Z" fill="white"/>
</svg>
