<svg width="228" height="48" viewBox="0 0 228 48" fill="none" xmlns="http://www.w3.org/2000/svg">
<path d="M60.5 4.1012H12.5C8.13761 4.1012 4.6012 7.63761 4.6012 12V36C4.6012 40.3624 8.13761 43.8988 12.5 43.8988H60.5C64.8624 43.8988 68.3988 40.3624 68.3988 36V12C68.3988 7.63761 64.8624 4.1012 60.5 4.1012Z" fill="#FFD800"/>
<path d="M60.5 4.1012H12.5C8.13761 4.1012 4.6012 7.63761 4.6012 12V36C4.6012 40.3624 8.13761 43.8988 12.5 43.8988H60.5C64.8624 43.8988 68.3988 40.3624 68.3988 36V12C68.3988 7.63761 64.8624 4.1012 60.5 4.1012Z" stroke="#E0E0E0" stroke-width="0.202404"/>
<mask id="mask0_10_305" style="mask-type:luminance" maskUnits="userSpaceOnUse" x="20" y="7" width="33" height="33">
<path d="M52.3887 7.8125H20.3887V39.8125H52.3887V7.8125Z" fill="white"/>
</mask>
<g mask="url(#mask0_10_305)">
<path d="M52.3887 7.8125H20.3887V39.8125H52.3887V7.8125Z" fill="#FFD800"/>
<path d="M24.0353 25.7191C26.091 27.9295 28.0433 30.3021 31.0819 31.1046C32.8055 31.5599 33.6232 31.1531 35.2499 30.9202C36.9904 30.671 38.69 30.5828 40.437 30.4457C43.2701 30.2233 45.554 29.363 47.8157 27.6686C48.0305 27.5081 48.5354 27.1415 48.6918 26.9687C49.0251 26.5987 48.6918 26.1084 48.215 26.2578C47.2081 27.0499 46.1634 27.7882 45.0205 28.3754C43.6577 29.0752 42.2026 29.4301 40.6704 29.5702C38.7542 29.7453 36.869 29.8176 34.9592 30.1042C33.9022 30.263 33.1644 30.5799 32.0397 30.4392C28.9305 30.0499 26.7009 27.2693 24.6773 25.136C24.4024 24.8459 23.3506 23.5152 23.0897 23.455C22.9887 23.4317 22.8633 23.4253 22.764 23.455C22.4652 23.5443 22.4681 23.8957 22.6059 24.1146C22.8557 24.5121 23.6728 25.3298 24.0353 25.7191Z" fill="black"/>
<path d="M47.4578 15.9293C51.2523 15.4495 51.5926 20.5834 48.2575 20.8729C44.7362 21.1788 44.3889 16.3174 47.4578 15.9293Z" fill="black"/>
<path d="M22.3146 18.3164C22.9176 20.6552 26.2404 20.9389 27.2175 18.725C27.6371 17.7736 27.5478 16.8479 26.8106 16.0675C25.0328 14.1852 21.6493 15.7343 22.3146 18.3164Z" fill="black"/>
<path d="M47.4159 17.2413C48.6784 16.9851 49.0397 18.9824 47.6365 18.9824C46.4464 18.9824 46.4067 17.4468 47.4159 17.2413Z" fill="#FBFBFB"/>
<path d="M24.2798 16.0354C25.5201 15.8323 25.7366 17.5751 24.6609 17.7578C23.3769 17.9761 23.109 16.2269 24.2798 16.0354Z" fill="#FBFBFB"/>
</g>
</svg>
